<svg width="27" height="30" viewBox="0 0 27 30" fill="none" xmlns="http://www.w3.org/2000/svg">
<g filter="url(#filter0_d_1_83)">
<path d="M12.999 7.37695C11.7726 7.37695 10.5965 7.86412 9.72934 8.73129C8.86217 9.59846 8.375 10.7746 8.375 12.001C8.375 13.2273 8.86217 14.4034 9.72934 15.2706C10.5965 16.1378 11.7726 16.625 12.999 16.625C14.2254 16.625 15.4015 16.1378 16.2687 15.2706C17.1358 14.4034 17.623 13.2273 17.623 12.001C17.623 10.7746 17.1358 9.59846 16.2687 8.73129C15.4015 7.86412 14.2254 7.37695 12.999 7.37695ZM12.999 15.004C12.2023 15.004 11.4382 14.6875 10.8749 14.1241C10.3115 13.5607 9.995 12.7967 9.995 12C9.995 11.2032 10.3115 10.4392 10.8749 9.8758C11.4382 9.31245 12.2023 8.99595 12.999 8.99595C13.7957 8.99595 14.5598 9.31245 15.1231 9.8758C15.6865 10.4392 16.003 11.2032 16.003 12C16.003 12.7967 15.6865 13.5607 15.1231 14.1241C14.5598 14.6875 13.7957 15.004 12.999 15.004Z" fill="white"/>
<path d="M17.806 8.28491C18.4014 8.28491 18.884 7.80227 18.884 7.20691C18.884 6.61154 18.4014 6.12891 17.806 6.12891C17.2107 6.12891 16.728 6.61154 16.728 7.20691C16.728 7.80227 17.2107 8.28491 17.806 8.28491Z" fill="white"/>
<path d="M21.533 6.11088C21.3015 5.51306 20.9477 4.97017 20.4943 4.51694C20.0409 4.06372 19.4979 3.71015 18.9 3.47888C18.2003 3.21624 17.4611 3.07422 16.714 3.05888C15.751 3.01688 15.446 3.00488 13.004 3.00488C10.562 3.00488 10.249 3.00488 9.29395 3.05888C8.54734 3.07344 7.80871 3.21548 7.10995 3.47888C6.51189 3.70988 5.96872 4.06335 5.51529 4.51661C5.06186 4.96987 4.70818 5.51291 4.47695 6.11088C4.21426 6.8105 4.07257 7.54972 4.05795 8.29688C4.01495 9.25888 4.00195 9.56388 4.00195 12.0069C4.00195 14.4489 4.00195 14.7599 4.05795 15.7169C4.07295 16.4649 4.21395 17.2029 4.47695 17.9039C4.70883 18.5016 5.06285 19.0445 5.51639 19.4977C5.96993 19.9509 6.51302 20.3045 7.11095 20.5359C7.80839 20.8091 8.54732 20.9613 9.29595 20.9859C10.259 21.0279 10.564 21.0409 13.006 21.0409C15.448 21.0409 15.761 21.0409 16.716 20.9859C17.4631 20.9707 18.2022 20.829 18.902 20.5669C19.4997 20.3351 20.0426 19.9812 20.4959 19.5279C20.9493 19.0745 21.3031 18.5316 21.535 17.9339C21.798 17.2339 21.939 16.4959 21.954 15.7479C21.997 14.7859 22.01 14.4809 22.01 12.0379C22.01 9.59488 22.01 9.28488 21.954 8.32788C21.9423 7.57016 21.7999 6.82013 21.533 6.11088ZM20.315 15.6429C20.3085 16.2192 20.2033 16.7901 20.004 17.3309C19.8538 17.7198 19.6239 18.0729 19.329 18.3676C19.0342 18.6622 18.6809 18.8919 18.292 19.0419C17.7572 19.2403 17.1923 19.3455 16.622 19.3529C15.672 19.3969 15.404 19.4079 12.968 19.4079C10.53 19.4079 10.281 19.4079 9.31295 19.3529C8.74288 19.3459 8.17828 19.2407 7.64395 19.0419C7.25364 18.8929 6.89895 18.6636 6.60284 18.3688C6.30673 18.0741 6.07579 17.7205 5.92495 17.3309C5.7284 16.7959 5.62326 16.2317 5.61395 15.6619C5.57095 14.7119 5.56095 14.4439 5.56095 12.0079C5.56095 9.57088 5.56095 9.32188 5.61395 8.35288C5.62042 7.77691 5.72561 7.2063 5.92495 6.66588C6.22995 5.87688 6.85495 5.25588 7.64395 4.95388C8.17854 4.75602 8.74298 4.65085 9.31295 4.64288C10.264 4.59988 10.531 4.58788 12.968 4.58788C15.405 4.58788 15.655 4.58788 16.622 4.64288C17.1924 4.64974 17.7573 4.75495 18.292 4.95388C18.6809 5.10416 19.0341 5.33409 19.3289 5.62891C19.6238 5.92374 19.8537 6.27695 20.004 6.66588C20.2005 7.20083 20.3056 7.76504 20.315 8.33488C20.358 9.28588 20.369 9.55288 20.369 11.9899C20.369 14.4259 20.369 14.6879 20.326 15.6439H20.315V15.6429Z" fill="white"/>
</g>
<defs>
<filter id="filter0_d_1_83" x="-3" y="0" width="32" height="32" filterUnits="userSpaceOnUse" color-interpolation-filters="sRGB">
<feFlood flood-opacity="0" result="BackgroundImageFix"/>
<feColorMatrix in="SourceAlpha" type="matrix" values="0 0 0 0 0 0 0 0 0 0 0 0 0 0 0 0 0 0 127 0" result="hardAlpha"/>
<feOffset dy="4"/>
<feGaussianBlur stdDeviation="2"/>
<feComposite in2="hardAlpha" operator="out"/>
<feColorMatrix type="matrix" values="0 0 0 0 0 0 0 0 0 0 0 0 0 0 0 0 0 0 0.25 0"/>
<feBlend mode="normal" in2="BackgroundImageFix" result="effect1_dropShadow_1_83"/>
<feBlend mode="normal" in="SourceGraphic" in2="effect1_dropShadow_1_83" result="shape"/>
</filter>
</defs>
</svg>
