<svg width="28" height="23" viewBox="0 0 28 23" fill="none" xmlns="http://www.w3.org/2000/svg">
<g filter="url(#filter0_d_1_82)">
<path d="M21.9452 4.39489C21.9585 4.54773 21.9585 4.69969 21.9585 4.85166C21.9585 9.50231 17.8337 14.8613 10.2955 14.8613C7.97313 14.8613 5.81559 14.284 4 13.2814C4.32974 13.3137 4.64726 13.325 4.99023 13.325C6.83533 13.3288 8.62818 12.7994 10.0798 11.822C9.22432 11.8087 8.39505 11.5665 7.70775 11.1292C7.02046 10.6918 6.50945 10.0813 6.24608 9.38266C6.49949 9.41498 6.75392 9.43681 7.02056 9.43681C7.38795 9.43681 7.75738 9.39314 8.10035 9.31716C7.17195 9.1563 6.33714 8.72445 5.73786 8.09505C5.13857 7.46565 4.81182 6.67755 4.81315 5.86476V5.82109C5.35966 6.08223 5.99369 6.24555 6.66538 6.26738C6.10268 5.94649 5.64128 5.51107 5.32235 4.99995C5.00342 4.48883 4.83687 3.91791 4.83757 3.33812C4.83757 2.68485 5.0401 2.08572 5.39528 1.56345C6.42534 2.6508 7.71006 3.54036 9.16623 4.1745C10.6224 4.80865 12.2175 5.17324 13.8484 5.24467C13.7853 4.98266 13.7466 4.71105 13.7466 4.43856C13.7463 3.97652 13.8522 3.51896 14.0581 3.09204C14.264 2.66513 14.5659 2.27723 14.9467 1.95051C15.3274 1.6238 15.7794 1.36468 16.2769 1.18797C16.7743 1.01126 17.3075 0.920425 17.8459 0.920655C19.0265 0.920655 20.092 1.34511 20.841 2.03157C21.7588 1.87927 22.6389 1.59177 23.4423 1.18179C23.1364 1.99473 22.4956 2.68406 21.6399 3.12065C22.4539 3.04099 23.2494 2.85729 24 2.57568C23.4394 3.27707 22.7447 3.89213 21.9452 4.39489Z" fill="white"/>
</g>
<defs>
<filter id="filter0_d_1_82" x="0" y="0.920654" width="28" height="21.9407" filterUnits="userSpaceOnUse" color-interpolation-filters="sRGB">
<feFlood flood-opacity="0" result="BackgroundImageFix"/>
<feColorMatrix in="SourceAlpha" type="matrix" values="0 0 0 0 0 0 0 0 0 0 0 0 0 0 0 0 0 0 127 0" result="hardAlpha"/>
<feOffset dy="4"/>
<feGaussianBlur stdDeviation="2"/>
<feComposite in2="hardAlpha" operator="out"/>
<feColorMatrix type="matrix" values="0 0 0 0 0 0 0 0 0 0 0 0 0 0 0 0 0 0 0.25 0"/>
<feBlend mode="normal" in2="BackgroundImageFix" result="effect1_dropShadow_1_82"/>
<feBlend mode="normal" in="SourceGraphic" in2="effect1_dropShadow_1_82" result="shape"/>
</filter>
</defs>
</svg>
